<svg width="42" height="42" viewBox="0 0 42 42" fill="none" xmlns="http://www.w3.org/2000/svg">
<path d="M21 29.8889C25.9091 29.8889 29.8889 25.9091 29.8889 21C29.8889 16.0908 25.9091 12.1111 21 12.1111C16.0908 12.1111 12.1111 16.0908 12.1111 21C12.1111 25.9091 16.0908 29.8889 21 29.8889Z" stroke="black" stroke-width="1.5" stroke-linecap="round" stroke-linejoin="round"/>
<path d="M1 29.8889V12.1111C1 5.97462 5.97462 1 12.1111 1H29.8889C36.0253 1 41 5.97462 41 12.1111V29.8889C41 36.0253 36.0253 41 29.8889 41H12.1111C5.97462 41 1 36.0253 1 29.8889Z" stroke="black" stroke-width="1.5"/>
<path d="M33.2222 8.80008L33.2445 8.77539" stroke="black" stroke-width="1.5" stroke-linecap="round" stroke-linejoin="round"/>
</svg>
