<svg width="60" height="43" viewBox="0 0 60 43" fill="none" xmlns="http://www.w3.org/2000/svg">
<path fill-rule="evenodd" clip-rule="evenodd" d="M3.46436 2.36991C3.75275 2.07259 4.22757 2.06534 4.52489 2.35373L30 27.0631L55.4751 2.35373C55.7724 2.06534 56.2473 2.07259 56.5356 2.36991C56.824 2.66724 56.8168 3.14206 56.5195 3.43045L30.5222 28.6463C30.2312 28.9285 29.7688 28.9285 29.4778 28.6463L3.48054 3.43045C3.18321 3.14206 3.17597 2.66724 3.46436 2.36991Z" fill="black"/>
<path d="M0.999939 35.8V6.8C0.999939 3.59675 3.59669 1 6.79994 1H53.1999C56.4033 1 58.9999 3.59675 58.9999 6.8V35.8C58.9999 39.0033 56.4033 41.6 53.1999 41.6H6.79994C3.59669 41.6 0.999939 39.0033 0.999939 35.8Z" stroke="black" stroke-width="1.5"/>
<path fill-rule="evenodd" clip-rule="evenodd" d="M37.9362 19.9184L43.5898 25.7778L57.1726 39.855C57.4602 40.1531 57.935 40.1616 58.2331 39.874C58.5311 39.5864 58.5396 39.1116 58.252 38.8135L44.6692 24.7363L39.0361 18.8982L37.9362 19.9184Z" fill="black"/>
<path fill-rule="evenodd" clip-rule="evenodd" d="M21.3906 19.6233L15.7931 25.4245L2.21028 39.5017C1.92267 39.7998 1.93115 40.2746 2.22923 40.5622C2.52731 40.8498 3.00211 40.8413 3.28972 40.5433L16.8725 26.4661L22.4648 20.6702L21.3906 19.6233Z" fill="black"/>
</svg>
