<svg width="23" height="42" viewBox="0 0 23 42" fill="none" xmlns="http://www.w3.org/2000/svg">
<path d="M14.3414 11.729C14.3414 8.64785 15.882 8.64785 17.4226 8.64785H19.2713C19.5799 8.652 19.8863 8.59426 20.1723 8.47805C20.4582 8.36183 20.718 8.1895 20.9363 7.97123C21.1546 7.75295 21.3269 7.49315 21.4431 7.20718C21.5593 6.9212 21.6171 6.61484 21.6129 6.30617V3.40989C21.613 3.09976 21.5514 2.79272 21.4318 2.50659C21.3122 2.22046 21.1369 1.96093 20.9162 1.74308C20.6955 1.52523 20.4337 1.35339 20.146 1.23754C19.8584 1.12168 19.5505 1.06413 19.2405 1.06821L14.8652 1.00658C13.5912 0.957309 12.3218 1.18506 11.1444 1.67411C9.96697 2.16316 8.90972 2.90186 8.04557 3.83924C7.18143 4.77661 6.53097 5.89034 6.1391 7.10354C5.74723 8.31674 5.62328 9.60052 5.77579 10.8663V15.334H3.34168C2.72063 15.334 2.12501 15.5807 1.68586 16.0198C1.24671 16.459 1 17.0546 1 17.6756V20.5719C1 21.193 1.24671 21.7886 1.68586 22.2277C2.12501 22.6669 2.72063 22.9136 3.34168 22.9136H5.77579V39.4594C5.77579 39.868 5.9381 40.2599 6.22702 40.5488C6.51593 40.8377 6.90778 41 7.31637 41H12.8933C13.2856 40.9764 13.6541 40.8038 13.9233 40.5174C14.1926 40.231 14.3421 39.8525 14.3414 39.4594V22.9136H17.0528C17.6739 22.9136 18.2695 22.6669 18.7086 22.2277C19.1478 21.7886 19.3945 21.193 19.3945 20.5719V17.6756C19.3945 17.0546 19.1478 16.459 18.7086 16.0198C18.2695 15.5807 17.6739 15.334 17.0528 15.334H14.3414V11.729Z" stroke="black" stroke-width="1.71429" stroke-linecap="round" stroke-linejoin="round"/>
</svg>
