<svg width="22" height="22" viewBox="0 0 22 22" fill="none" xmlns="http://www.w3.org/2000/svg">
<path d="M18.5001 20.8C19.3285 20.8 20.0001 20.1311 20.0001 19.3061C20.0001 18.4811 19.3285 17.8123 18.5001 17.8123C17.6717 17.8123 17.0001 18.4811 17.0001 19.3061C17.0001 20.1311 17.6717 20.8 18.5001 20.8Z" fill="black" stroke="#9B4F20" stroke-width="1.5" stroke-linecap="round" stroke-linejoin="round"/>
<path d="M8.50006 20.8C9.32846 20.8 10.0001 20.1311 10.0001 19.3061C10.0001 18.4811 9.32846 17.8123 8.50006 17.8123C7.67163 17.8123 7.00006 18.4811 7.00006 19.3061C7.00006 20.1311 7.67163 20.8 8.50006 20.8Z" fill="black" stroke="#9B4F20" stroke-width="1.5" stroke-linecap="round" stroke-linejoin="round"/>
<path d="M9.75006 2.8736L10.5001 13.8286M15.5001 2.8736H21.0001L19.0001 13.8286H14.5001L15.5001 2.8736ZM15.5001 2.8736L14.5001 13.8286L15.5001 2.8736ZM15.5001 2.8736H9.75006H15.5001ZM14.5001 13.8286H10.5001H14.5001ZM9.75006 2.8736H4.00006L6.00006 13.8286H10.5001L9.75006 2.8736Z" stroke="#9B4F20" stroke-width="1.5" stroke-linecap="round" stroke-linejoin="round"/>
<path d="M4.00006 2.8736C3.83339 2.20965 3.00006 0.881775 1.00006 0.881775" stroke="#9B4F20" stroke-width="1.5" stroke-linecap="round" stroke-linejoin="round"/>
<path d="M19.0001 13.8286H6.00006H4.23083C2.44652 13.8286 1.50006 14.6066 1.50006 15.8204C1.50006 17.0343 2.44652 17.8123 4.23083 17.8123H18.5001" stroke="#9B4F20" stroke-width="1.5" stroke-linecap="round" stroke-linejoin="round"/>
</svg>
